<svg xmlns="http://www.w3.org/2000/svg" version="1.1" xmlns:xlink="http://www.w3.org/1999/xlink" xmlns:svgjs="http://svgjs.dev/svgjs" width="1500" height="132" viewBox="0 0 1500 132"><g transform="matrix(1,0,0,1,-0.9090909090909918,-1.3314011180076335)"><svg viewBox="0 0 396 35" data-background-color="#ffffff" preserveAspectRatio="xMidYMid meet" height="132" width="1500" xmlns="http://www.w3.org/2000/svg" xmlns:xlink="http://www.w3.org/1999/xlink"><g id="tight-bounds" transform="matrix(1,0,0,1,0.2400000000000091,0.35302302371414385)"><svg viewBox="0 0 395.52 34.29395395257169" height="34.29395395257169" width="395.52"><g><svg viewBox="0 0 434.67835135373775 37.68921765145849" height="34.29395395257169" width="395.52"><g transform="matrix(1,0,0,1,39.15835135373777,5.208857142857145)"><svg viewBox="0 0 395.52 27.271503365744202" height="27.271503365744202" width="395.52"><g id="textblocktransform"><svg viewBox="0 0 395.52 27.271503365744202" height="27.271503365744202" width="395.52" id="textblock"><g><svg viewBox="0 0 395.52 27.271503365744202" height="27.271503365744202" width="395.52"><g transform="matrix(1,0,0,1,0,0)"><svg width="395.52" viewBox="4.49 -36.01 522.22 36.01" height="27.271503365744202" data-palette-color="#ffffff"><path d="M27.29-18.26L27.29-18.26Q28.39-17.92 29.3-17.29 30.2-16.65 30.83-15.66 31.47-14.67 31.81-13.33 32.15-11.99 32.15-10.25L32.15-10.25 32.15-8.5Q32.15 0 23.66 0L23.66 0 4.49 0 4.49-35.01 22.66-35.01Q31.15-35.01 31.15-26.49L31.15-26.49 31.15-25.85Q31.15-22.9 30.21-21.03 29.27-19.17 27.29-18.26ZM23.51-15.26L9.4-15.26 9.4-4.91 23.51-4.91Q25.49-4.91 26.37-5.83 27.25-6.76 27.25-8.74L27.25-8.74 27.25-11.45Q27.25-13.45 26.37-14.36 25.49-15.26 23.51-15.26L23.51-15.26ZM22.51-30.1L9.4-30.1 9.4-20.14 22.85-20.14Q24.66-20.21 25.45-21.13 26.25-22.05 26.25-23.95L26.25-23.95 26.25-26.25Q26.25-28.25 25.37-29.17 24.49-30.1 22.51-30.1L22.51-30.1ZM61.64-21.19L61.64-4.81Q61.64-3.81 61.26-2.93 60.89-2.05 60.24-1.4 59.59-0.76 58.73-0.38 57.86 0 56.86 0L56.86 0 43.94 0Q42.97 0 42.09-0.38 41.21-0.76 40.56-1.4 39.91-2.05 39.54-2.93 39.16-3.81 39.16-4.81L39.16-4.81 39.16-21.19Q39.16-22.19 39.54-23.07 39.91-23.95 40.56-24.6 41.21-25.24 42.09-25.62 42.97-26 43.94-26L43.94-26 56.86-26Q57.86-26 58.73-25.62 59.59-25.24 60.24-24.6 60.89-23.95 61.26-23.07 61.64-22.19 61.64-21.19L61.64-21.19ZM56.86-21.19L43.94-21.19 43.94-4.81 56.86-4.81 56.86-21.19ZM92.13-21.19L92.13-4.81Q92.13-3.81 91.76-2.93 91.38-2.05 90.73-1.4 90.08-0.76 89.22-0.38 88.35 0 87.35 0L87.35 0 74.43 0Q73.46 0 72.58-0.38 71.7-0.76 71.05-1.4 70.41-2.05 70.03-2.93 69.65-3.81 69.65-4.81L69.65-4.81 69.65-21.19Q69.65-22.19 70.03-23.07 70.41-23.95 71.05-24.6 71.7-25.24 72.58-25.62 73.46-26 74.43-26L74.43-26 87.35-26Q88.35-26 89.22-25.62 90.08-25.24 90.73-24.6 91.38-23.95 91.76-23.07 92.13-22.19 92.13-21.19L92.13-21.19ZM87.35-21.19L74.43-21.19 74.43-4.81 87.35-4.81 87.35-21.19ZM124.09 0L117.33 0 104.92-11.11 104.92 0 100.14 0 100.14-36.01 104.92-36.01 104.92-15.75 116.33-26 123.09-26 109.12-13.45 124.09 0ZM165.05-14.99L148.06-14.99Q147.03-14.99 146.12-15.39 145.2-15.8 144.52-16.47 143.84-17.14 143.44-18.05 143.05-18.97 143.05-20L143.05-20 143.05-30Q143.05-31.03 143.44-31.95 143.84-32.86 144.52-33.53 145.2-34.2 146.12-34.61 147.03-35.01 148.06-35.01L148.06-35.01 165.05-35.01Q166.08-35.01 166.99-34.61 167.91-34.2 168.59-33.53 169.27-32.86 169.67-31.95 170.06-31.03 170.06-30L170.06-30 170.06-25.49 165.05-25.49 165.05-30 148.06-30 148.06-20 165.05-20Q166.08-20 166.99-19.6 167.91-19.21 168.59-18.53 169.27-17.85 169.67-16.93 170.06-16.02 170.06-14.99L170.06-14.99 170.06-5Q170.06-3.98 169.67-3.06 169.27-2.15 168.59-1.46 167.91-0.78 166.99-0.39 166.08 0 165.05 0L165.05 0 147.57 0Q146.55 0 145.63-0.39 144.71-0.78 144.03-1.46 143.35-2.15 142.96-3.06 142.57-3.98 142.57-5L142.57-5 142.57-9.5 147.57-9.5 147.57-5 165.05-5 165.05-14.99ZM201.06-21.19L201.06-4.81Q201.06-3.81 200.68-2.93 200.3-2.05 199.66-1.4 199.01-0.76 198.14-0.38 197.28 0 196.27 0L196.27 0 183.36 0Q182.38 0 181.5-0.38 180.62-0.76 179.98-1.4 179.33-2.05 178.95-2.93 178.57-3.81 178.57-4.81L178.57-4.81 178.57-21.19Q178.57-22.19 178.95-23.07 179.33-23.95 179.98-24.6 180.62-25.24 181.5-25.62 182.38-26 183.36-26L183.36-26 196.27-26Q197.28-26 198.14-25.62 199.01-25.24 199.66-24.6 200.3-23.95 200.68-23.07 201.06-22.19 201.06-21.19L201.06-21.19ZM196.27-21.19L183.36-21.19 183.36-4.81 196.27-4.81 196.27-21.19ZM226.25-21.19L213.85-21.19 213.85-4.81 226.25-4.81 226.25-9.2 231.06-9.2 231.06-4.81Q231.06-3.81 230.68-2.93 230.3-2.05 229.66-1.4 229.01-0.76 228.13-0.38 227.25 0 226.25 0L226.25 0 213.85 0Q212.87 0 211.99-0.38 211.12-0.76 210.47-1.4 209.82-2.05 209.44-2.93 209.06-3.81 209.06-4.81L209.06-4.81 209.06-21.19Q209.06-22.19 209.44-23.07 209.82-23.95 210.47-24.6 211.12-25.24 211.99-25.62 212.87-26 213.85-26L213.85-26 226.25-26Q227.25-26 228.13-25.62 229.01-25.24 229.66-24.6 230.3-23.95 230.68-23.07 231.06-22.19 231.06-21.19L231.06-21.19 231.06-16.8 226.25-16.8 226.25-21.19ZM239.31-26L244.12-26 244.12 0 239.31 0 239.31-26ZM239.07-31.01L239.07-36.01 244.36-36.01 244.36-31.01 239.07-31.01ZM252.37-4.81L252.37-11.35Q252.37-12.35 252.75-13.22 253.13-14.09 253.77-14.75 254.42-15.41 255.3-15.78 256.18-16.16 257.16-16.16L257.16-16.16 269.56-16.16 269.56-21.19 253.86-21.19 253.86-26 269.56-26Q270.56-26 271.44-25.62 272.32-25.24 272.96-24.6 273.61-23.95 273.99-23.07 274.37-22.19 274.37-21.19L274.37-21.19 274.37 0 269.56 0 269.56-4.39Q269.48-3.49 269.07-2.69 268.65-1.88 268.01-1.28 267.36-0.68 266.53-0.34 265.7 0 264.77 0L264.77 0 257.16 0Q256.18 0 255.3-0.38 254.42-0.76 253.77-1.4 253.13-2.05 252.75-2.93 252.37-3.81 252.37-4.81L252.37-4.81ZM257.16-11.35L257.16-4.81 269.56-4.81 269.56-11.35 257.16-11.35ZM282.37-36.01L287.16-36.01 287.16 0 282.37 0 282.37-36.01ZM315.64-27.15L315.64 0 310.64 0 310.64-35.01 315.64-35.01 336.69-7.86 336.69-35.01 341.69-35.01 341.69 0 336.69 0 315.64-27.15ZM372.18-21.19L372.18-10.55 354.97-10.55 354.97-4.81 372.18-4.81 372.18 0 354.97 0Q354 0 353.12-0.38 352.24-0.76 351.59-1.4 350.94-2.05 350.57-2.93 350.19-3.81 350.19-4.81L350.19-4.81 350.19-21.19Q350.19-22.19 350.57-23.07 350.94-23.95 351.59-24.6 352.24-25.24 353.12-25.62 354-26 354.97-26L354.97-26 367.37-26Q368.38-26 369.25-25.62 370.13-25.24 370.78-24.6 371.43-23.95 371.81-23.07 372.18-22.19 372.18-21.19L372.18-21.19ZM367.37-21.19L354.97-21.19 354.97-15.36 367.37-15.36 367.37-21.19ZM378.68-21.19L378.68-26 385.02-26 385.02-34.01 389.83-34.01 389.83-26 398.38-26 398.38-21.19 389.83-21.19 389.83-4.81 398.38-4.81 398.38 0 389.83 0Q388.86 0 387.98-0.38 387.1-0.76 386.44-1.4 385.78-2.05 385.4-2.93 385.02-3.81 385.02-4.81L385.02-4.81 385.02-21.19 378.68-21.19ZM416.78 0L411.78 0 403.38-26 408.24-26 414.39-6.4 420.13-26 425.04-26 430.77-6.4 436.93-26 441.78-26 433.39 0 428.38 0 422.57-19.09 416.78 0ZM469.27-21.19L469.27-4.81Q469.27-3.81 468.89-2.93 468.51-2.05 467.87-1.4 467.22-0.76 466.35-0.38 465.49 0 464.49 0L464.49 0 451.57 0Q450.59 0 449.72-0.38 448.84-0.76 448.19-1.4 447.54-2.05 447.16-2.93 446.79-3.81 446.79-4.81L446.79-4.81 446.79-21.19Q446.79-22.19 447.16-23.07 447.54-23.95 448.19-24.6 448.84-25.24 449.72-25.62 450.59-26 451.57-26L451.57-26 464.49-26Q465.49-26 466.35-25.62 467.22-25.24 467.87-24.6 468.51-23.95 468.89-23.07 469.27-22.19 469.27-21.19L469.27-21.19ZM464.49-21.19L451.57-21.19 451.57-4.81 464.49-4.81 464.49-21.19ZM491.97-21.19L482.06-21.19 482.06 0 477.28 0 477.28-26 482.06-26 482.06-21.41Q482.11-22.36 482.5-23.21 482.89-24.05 483.54-24.67 484.19-25.29 485.04-25.65 485.9-26 486.87-26L486.87-26 491.97-26Q492.98-26 493.84-25.62 494.71-25.24 495.37-24.6 496.03-23.95 496.41-23.07 496.78-22.19 496.78-21.19L496.78-21.19 496.78-16.8 491.97-16.8 491.97-21.19ZM526.71 0L519.95 0 507.55-11.11 507.55 0 502.76 0 502.76-36.01 507.55-36.01 507.55-15.75 518.95-26 525.71-26 511.75-13.45 526.71 0Z" opacity="1" transform="matrix(1,0,0,1,0,0)" fill="#ffffff" class="wordmark-text-0" data-fill-palette-color="primary" id="text-0"></path></svg></g></svg></g></svg></g></svg></g><g><svg viewBox="0 0 32.720203925166345 37.68921765145849" height="37.68921765145849" width="32.720203925166345"><g><svg xmlns="http://www.w3.org/2000/svg" xmlns:xlink="http://www.w3.org/1999/xlink" version="1.1" x="0" y="0" viewBox="11.567 6.624999944363894 72.05800006061045 83.00100005563611" enable-background="new 0 0 100 100" xml:space="preserve" height="37.68921765145849" width="32.720203925166345" class="icon-icon-0" data-fill-palette-color="accent" id="icon-0"><g fill="#ffffff" data-fill-palette-color="accent"><path d="M49.105 24.244L49.274 24.315C50.023 24.517 50.811 24.625 51.625 24.625 56.596 24.625 60.625 20.596 60.625 15.625S56.596 6.625 51.625 6.625A9 9 0 0 0 42.624 15.625C42.624 18.025 43.562 20.206 45.094 21.819L45.098 21.817 23.314 53.036 23.286 53.029A9.1 9.1 0 0 0 20.596 52.625C15.625 52.625 11.567 56.654 11.567 61.625S15.538 70.625 20.508 70.625A8.8 8.8 0 0 0 28.014 66.464L65.625 80.022 65.646 80.024A9 9 0 0 0 74.625 89.626 9 9 0 0 0 83.625 80.626 9 9 0 0 0 67.292 75.407L67.295 75.41 29.39 61.625C29.39 59.395 29 57.354 27 55.781V55.787L49.045 24.31" fill="#ffffff" data-fill-palette-color="accent"></path></g></svg></g></svg></g></svg></g><defs></defs></svg><rect width="395.52" height="34.29395395257169" fill="none" stroke="none" visibility="hidden"></rect></g></svg></g></svg>