<svg xmlns="http://www.w3.org/2000/svg" version="1.1" xmlns:xlink="http://www.w3.org/1999/xlink" xmlns:svgjs="http://svgjs.dev/svgjs" width="1500" height="465" viewBox="0 0 1500 465"><g transform="matrix(1,0,0,1,-0.9090909090909918,8.85994530464805)"><svg viewBox="0 0 396 123" data-background-color="#ffffff" preserveAspectRatio="xMidYMid meet" height="465" width="1500" xmlns="http://www.w3.org/2000/svg" xmlns:xlink="http://www.w3.org/1999/xlink"><g id="tight-bounds" transform="matrix(1,0,0,1,0.2400000000000091,0.409897189133261)"><svg viewBox="0 0 395.52 122.18020562173348" height="122.18020562173348" width="395.52"><g><svg viewBox="0 0 606.0246367726147 187.20725812276095" height="122.18020562173348" width="395.52"><g transform="matrix(1,0,0,1,210.5046367726147,25.873072577024132)"><svg viewBox="0 0 395.52 135.46111296871268" height="135.46111296871268" width="395.52"><g id="textblocktransform"><svg viewBox="0 0 395.52 135.46111296871268" height="135.46111296871268" width="395.52" id="textblock"><g><svg viewBox="0 0 395.52 135.46111296871268" height="135.46111296871268" width="395.52"><g transform="matrix(1,0,0,1,0,0)"><svg width="395.52" viewBox="4.49 -35.01 102.22 35.01" height="135.46111296871268" data-palette-color="#0c0a0f"><path d="M27.29-18.26L27.29-18.26Q28.39-17.92 29.3-17.29 30.2-16.65 30.83-15.66 31.47-14.67 31.81-13.33 32.15-11.99 32.15-10.25L32.15-10.25 32.15-8.5Q32.15 0 23.66 0L23.66 0 4.49 0 4.49-35.01 22.66-35.01Q31.15-35.01 31.15-26.49L31.15-26.49 31.15-25.85Q31.15-22.9 30.21-21.03 29.27-19.17 27.29-18.26ZM23.51-15.26L9.4-15.26 9.4-4.91 23.51-4.91Q25.49-4.91 26.37-5.83 27.25-6.76 27.25-8.74L27.25-8.74 27.25-11.45Q27.25-13.45 26.37-14.36 25.49-15.26 23.51-15.26L23.51-15.26ZM22.51-30.1L9.4-30.1 9.4-20.14 22.85-20.14Q24.66-20.21 25.45-21.13 26.25-22.05 26.25-23.95L26.25-23.95 26.25-26.25Q26.25-28.25 25.37-29.17 24.49-30.1 22.51-30.1L22.51-30.1ZM61.64-14.99L44.65-14.99Q43.63-14.99 42.71-15.39 41.79-15.8 41.11-16.47 40.43-17.14 40.04-18.05 39.65-18.97 39.65-20L39.65-20 39.65-30Q39.65-31.03 40.04-31.95 40.43-32.86 41.11-33.53 41.79-34.2 42.71-34.61 43.63-35.01 44.65-35.01L44.65-35.01 61.64-35.01Q62.67-35.01 63.58-34.61 64.5-34.2 65.18-33.53 65.87-32.86 66.26-31.95 66.65-31.03 66.65-30L66.65-30 66.65-25.49 61.64-25.49 61.64-30 44.65-30 44.65-20 61.64-20Q62.67-20 63.58-19.6 64.5-19.21 65.18-18.53 65.87-17.85 66.26-16.93 66.65-16.02 66.65-14.99L66.65-14.99 66.65-5Q66.65-3.98 66.26-3.06 65.87-2.15 65.18-1.46 64.5-0.78 63.58-0.39 62.67 0 61.64 0L61.64 0 44.16 0Q43.14 0 42.22-0.39 41.31-0.78 40.62-1.46 39.94-2.15 39.55-3.06 39.16-3.98 39.16-5L39.16-5 39.16-9.5 44.16-9.5 44.16-5 61.64-5 61.64-14.99ZM80.66-27.15L80.66 0 75.65 0 75.65-35.01 80.66-35.01 101.7-7.86 101.7-35.01 106.71-35.01 106.71 0 101.7 0 80.66-27.15Z" opacity="1" transform="matrix(1,0,0,1,0,0)" fill="#0c0a0f" class="wordmark-text-0" data-fill-palette-color="primary" id="text-0"></path></svg></g></svg></g></svg></g></svg></g><g><svg viewBox="0 0 178.5255190674129 187.20725812276095" height="187.20725812276095" width="178.5255190674129"><g><svg xmlns="http://www.w3.org/2000/svg" xmlns:xlink="http://www.w3.org/1999/xlink" version="1.1" x="8" y="0" viewBox="11.567 6.624999944363894 72.05800006061045 83.00100005563611" enable-background="new 0 0 100 100" xml:space="preserve" height="187.20725812276095" width="162.5255190674129" class="icon-icon-0" data-fill-palette-color="accent" id="icon-0"><g fill="#27ae60" data-fill-palette-color="accent"><path d="M49.105 24.244L49.274 24.315C50.023 24.517 50.811 24.625 51.625 24.625 56.596 24.625 60.625 20.596 60.625 15.625S56.596 6.625 51.625 6.625A9 9 0 0 0 42.624 15.625C42.624 18.025 43.562 20.206 45.094 21.819L45.098 21.817 23.314 53.036 23.286 53.029A9.1 9.1 0 0 0 20.596 52.625C15.625 52.625 11.567 56.654 11.567 61.625S15.538 70.625 20.508 70.625A8.8 8.8 0 0 0 28.014 66.464L65.625 80.022 65.646 80.024A9 9 0 0 0 74.625 89.626 9 9 0 0 0 83.625 80.626 9 9 0 0 0 67.292 75.407L67.295 75.41 29.39 61.625C29.39 59.395 29 57.354 27 55.781V55.787L49.045 24.31" fill="#27ae60" data-fill-palette-color="accent"></path></g></svg></g></svg></g></svg></g><defs></defs></svg><rect width="395.52" height="122.18020562173348" fill="none" stroke="none" visibility="hidden"></rect></g></svg></g></svg>